<?xml version="1.0" encoding="utf-8"?>
<!-- Generator: Adobe Illustrator 18.1.1, SVG Export Plug-In . SVG Version: 6.00 Build 0)  -->
<svg version="1.1" id="Layer_1" xmlns="http://www.w3.org/2000/svg" xmlns:xlink="http://www.w3.org/1999/xlink" x="0px" y="0px"
	 width="600px" height="213.9px" viewBox="0 0 600 213.9" enable-background="new 0 0 600 213.9" xml:space="preserve">
<g>
	<path fill="#4D4D4F" d="M514.1,113c-0.3,22.1,12.1,39,36.1,39c11.4,0,19.4-3.8,23.1-7.1c2.8-2.3,1.7-4.2,0.3-6.7l-4.2-7.9
		c-2.1-4-5-2.8-7.2-1.3c-1.7,1.1-5.3,3.3-11.1,3.3c-9.6,0-14.5-8.8-14.5-19.4c0-10.7,3.9-19.4,14.9-19.4c9.2,0,14.1,4.8,14.1,4.8
		s2.8-1.7,5.3-6.5c4-7.1,1.4-10.2-0.6-11.9c-2-1.6-8.7-5.9-21.1-5.9C525.6,74,514.5,90.9,514.1,113"/>
	<path fill="#4D4D4F" d="M469.2,139.4c-0.1,4.9,0,11.4,7.9,11.4h8.5c10.2,0,7.7-7.3,7.2-12.8c-0.4-4.3-0.2-12.8-0.3-16.1
		c3.6-5.8,19.5-33.2,22.5-38.6c2-3.7-0.2-8.1-4.2-8.1h-10.1c-7.1,0-8.8,2-10,6c-1.4,4.6-6.5,16.8-8.8,22.7h-0.7
		c-1.8-4.6-7-17-8.6-22c-1-3-2.3-6.7-8.2-6.7h-9.4c-7.9,0-5.7,6-4.6,8.2c2,3.7,15.9,30.6,19.1,38C469.5,124.4,469.3,133,469.2,139.4
		"/>
	<path fill="#4D4D4F" d="M374.2,139.4c-0.1,4.9,0,11.4,7.8,11.4h8.6c10.4,0,7.7-7.3,7.3-12.8c-0.2-3-1.8-23.5-1.8-30.9h1.1
		c5.5,8.7,21.8,29.5,21.8,34.3c0.2,4.3,1.1,9.5,7.9,9.5h8.2c10.2,0,7.6-7.3,7.2-12.8c-0.6-7.9,0.7-46.2,0.9-51.6
		c0.1-4.9,0-11.2-7.8-11.2h-8.1c-7.6,0-7.9,2.9-7.8,5.6c0,1.7,0.9,24,1.1,29h-1l-25-34.6h-12.1c-10,0-7.7,6.7-7.6,12.1
		C375,90.9,374.8,126.9,374.2,139.4"/>
	<path fill="#4D4D4F" d="M218.2,139.7c-1.8-8.2-12.4-51.7-13.4-56.1c-1.1-4.9-2.8-8.5-9.8-8.5h-17.8c-9.1,0-9.3,3.8-10.6,9.1
		c-0.9,4.2-11.5,43-14.9,56c-1.2,4.7-1.2,10.6,4.2,10.6h10.8c6.8,0,7.7-3.3,7.9-8.8c0.1-0.8,0.8-3.2,1.7-6.3h18.4
		c0.9,2.8,1.4,5.2,1.9,6.5c0.8,2.7,1.3,8.7,9.2,8.7h7.7C220.9,150.8,219.3,145.1,218.2,139.7z M178.7,120.5
		c2.6-11.8,5.5-25.4,6.3-30.8h0.7l6.5,30.8H178.7z"/>
	<path fill="#4D4D4F" d="M100.7,142.3c1,4.9,2.8,8.5,9.8,8.5h17.8c9,0,9.3-3.8,10.6-9.1c1-4.2,11.1-43,14.6-56
		c1.3-4.7,1.2-10.6-4.2-10.6h-10.7c-7.1,0-7.2,3.4-8,8.8c-0.6,3.4-8.3,42-10,52.3h-0.7l-10.6-52.4c-0.6-2.7-1.4-8.7-9.2-8.7h-7.8
		c-7.2,0-5.7,5.7-4.6,11.1C89.6,94.5,99.6,138,100.7,142.3"/>
	<path fill="#4D4D4F" d="M34,149.2c2.8,1,10.5,2.7,18,2.7c17.6,0,31.4-8.7,30.3-25.7c-0.6-9.2-4.8-16.8-19.5-20.7l-7.3-2
		c-5.1-1.3-7.7-2.6-7.9-5.7c-0.1-3.7,2.8-5.8,8-5.8c9.7,0,18.4,4.3,18.4,4.3s1.7-2.7,2.7-5.7c2.8-8.9,1.3-11.4-4.6-13.7
		c-2.8-1.2-10-3-18.6-3c-17,0-29.4,9.5-28.4,25.8c0.7,12.1,7.3,17.4,17.8,19.9l6.8,1.7c6.7,1.7,9,3.7,9.2,6.7c0.1,3.4-3,5.8-8,5.8
		c-12,0-19.9-4.8-19.9-4.8s-2.2,2.6-3.2,6.6C25.4,142.8,26.1,146.4,34,149.2"/>
	<path fill="#00ADD2" d="M290.2,37c2.4,0.5,4.3,2.1,6.1,3.6c-0.5,0.4-0.5,0.7-0.3,1.1c1.1,0.2,2.3,0.8,2.4,1.8
		c-0.1,0.1-0.2,0.2-0.1,0.3c0.1,0.1,0.1,0.2,0.3,0.1l0.1-0.1c-0.2,0.1-0.1,0.5-0.1,0.7c-0.5,1.1,1.5,2.5,0.2,3.4
		c0.2,0.2,0.1,0.7,0.6,0.5c-0.1,0.7-1,0.5-1.4,0.6c-0.1,0.1,0.1,0.2,0.1,0.3h0.6l-0.8,0.2l0.9,0.3c0.3,0.4-0.5-0.3-0.7,0.2
		c0,0.4,0.1-0.2-0.1-0.2c-0.5,0.5,0.1,1.1-0.7,1.3l0.7,0.8c-5.3,1.4-10.4-1.4-14.8-4c-0.9,0.7-0.1,1.5-0.5,2.4
		c-0.4,0.7-1.2,1.5-0.7,2.4l-0.4-0.2c-0.3,0.2-0.1,0.6-0.2,0.9c-0.3-0.9,1.2-2.2,0.3-3.1c0.4-0.1,0.4-0.7,0.6-1
		c-0.1-0.1-0.2-0.2-0.3-0.1l-0.3,0.2c0.1-0.1-0.1-0.2-0.1-0.2h-0.3c0.5,1.1-0.9,2.2-0.4,3.4c-1.4,1.3,1,2.7-0.9,3.9
		c-0.1,0.8-1.5,1.4-1,2.2c0.4,0.9,1.5,0.1,2,0.7c1.6,0.6,2.5,2.1,4,3.1l0.7-0.3c1.5-2.2,2.7-4.4,4.7-6.2c0.5,0.4,0.9-0.1,1.3-0.3
		c0.3-1.1,1.8-1.7,2.8-2c2.9-0.5,5.8-0.5,8.2,1.2c5.1-2.1,9.3-5,14.4-7.3c4.3-1.4,9.5-4.6,14.2-1.7c0.8,1.1,2.4,2.2,1.5,3.8
		c-1,2-1.4,3.6-3,5c-0.1,0.9-0.9,2-1.9,2.4c0.5,0.8-0.4,0.6-0.1,1.4c-1-0.2-1.2,0.8-1.7,1.3c0.3,0.1,0.5,0.4,0.4,0.7
		c6.2-0.4,14.2-4,19.5,0.9c3,2.7,3.6,6.9,3.8,10.5c-0.2,0.8-0.1,2-1.1,2.1c0.7,0.1,0.5,0.9,0.5,1.5c-0.3,1.2-1.8,0.6-1.7,2
		c-0.5,0.2-1.5,0.8-1.6,0l-0.4,0.4l2.2,3l-0.1,0.1c0.4,0.4,0.9,1.5,1.1,2.1c-0.2,0.4-0.6,0.2-0.7,0.7l0.7,0.1
		c-0.4,0.6,0.2,1.6-0.5,2c-1.1,0.2-0.9,1.3-1.7,1.7c2.1-0.4,5.9-0.7,7.8,0.8c3.3,5.7,10,7.9,14.2,13.2c0.8,1.2,0.9,3.1,0.4,4.6
		c-1.1,0.8-1.1,2.5-2.4,2.4c-0.3-0.1-0.6,0.2-0.8,0.4c0.1,0.2,0.3,0.2,0.4,0.2v0.2c-0.9,0.7-2.4,1.5-3.7,1.9c-1,0.3-3.4-0.3-2.6,1.5
		c3,6.1,6,14,0.7,19.6c-0.4-0.5-0.8-0.2-1.2-0.4c-0.5,0.2-0.1,0.8,0,1.1c0.2,0.1,0.5,0.1,0.5,0.3c-0.4,0.3-1,0.7-1.4,0.4
		c-0.2,0.2,0,0.7-0.4,0.9c0.2-1.3-0.8,0.1-0.8-1l-0.6,0.5c0.7,0.4,0.4,0.9,0.3,1.4c-0.8,0.3-1.3-1-1.8-0.5c-0.2,0.5-0.8-0.1-0.6,0.7
		l0.6,0.5c-0.3,0.7-1.2,0.5-1.8,0.7c0.1-0.1,0.2-0.1,0.1-0.2c-0.8-0.1-1.3-0.5-2,0.1l0.6,0.7c-0.6,0.6-0.7-0.8-1.1,0.1
		c-0.9-0.6-2-0.2-3.1-0.1c-0.8,0.6-1.5-1.2-2.2,0c-0.1-0.2,0.1-0.5-0.2-0.6l-0.7,0.3c0.6-1.3-1.7-0.3-0.7-1.4
		c-1.3-0.1,0.3-1.1-1.1-1.1l0.3-0.3c-0.6-0.1-0.7-1.1-1.6-0.8c0.5-0.4-0.5-1.7,0.9-1.6v-0.2h-1.6c0.3,0,0.5-0.1,0.7-0.3
		c0-0.2,0.1-0.4-0.1-0.4l0.7-0.5c-0.2-0.2-0.7-0.1-1-0.1c0.4,0,0.7,0.1,0.9-0.3l-1.3-0.1c0.1,0,0.2-0.1,0.3-0.2
		c-0.4-0.2-0.5-0.2-0.9,0l0.2,0.5c-0.7,0.4-0.5-0.5-1.1,0c-1.1,3-2.1,7.3-6,7.9c-1.3-0.8-2.3,0.5-3.7-0.6c-3.1,0.2-5.5-3.1-8.5-2.7
		c-0.8-1.5-2.2,0.2-2.8-1.1l-0.1,0.4l-0.1-0.2l-0.3,0.6c1.9,4.3,3.8,9.2,2.8,14.2c3.6-0.4,6.3,2.1,9.1,4.1c1.3-1.6-0.7-3.7-0.2-5.7
		c-0.8-0.9-0.8-2.4-1.2-3.6c0.5-0.8-0.4-1-0.2-1.7c-0.1-1.3-0.1-2.9,1.4-3.1c3.6,0.4,2.9,4.6,4.4,6.8c1.2,6.5,3.1,13.9,1.7,20.3
		c-0.7,1.2-1.7,2.1-3,2.6c-0.4,0.8-1.5,1-2.4,1.3c-5.3,0.1-8.2-5.3-12.8-6.8c-3.1,4.2-3.3,11.1-9.1,13.1c-1.5,1.2-3.6,0.3-5.1,1
		c-1.4-0.2-2.5-1-3.8-1c-0.7-1.1-2.9,0.5-2.7-1.4c-0.6-0.4-2.1,0.7-2-0.7c-0.2-0.5-0.5-0.1-0.7,0c-0.5,0-1.1-0.3-1.6-0.6
		c-0.4-0.8-0.8-1.7-1.5-2.2l-0.2,0.1c0.1-0.5,0.3-0.6-0.4-1.2l-0.3,0.2c-0.4-0.4-0.9-0.8-0.8-1.4c0.1,0.1,0.1,0.2,0.3,0.2l0.1-0.2
		c-0.7-0.1-0.4-1.1-0.8-1.5c0.2-0.1,0.1-0.3,0.1-0.4l-0.5-0.3c0.9-0.1,0.1-0.8,0-1.3l0.2,0.3c0.2-0.6-0.1-1.4-0.4-1.9
		c0.1,0.2,0.4,0.4,0.6,0.7c0.3-0.7,0.8-1.2,0.1-1.9c0-0.2,0,0.5,0.3,0.3l0.3-1.1c-0.1,0.1,0.1,0.2,0.1,0.3c0.4-0.5-0.1-1.2-0.1-2
		l0.5,0.6c0.2-0.1,0.2-0.3,0.2-0.4c0.4,0.2,0.8,1.1,1.2,0.8c-0.4-0.5-0.9-1.3-0.5-1.8l-0.6-0.7c0.1-0.3,0.5,0.6,0.7,0.3l-0.5-1.2
		c-0.1,0.2,0,0.2,0.1,0.3c0.1,0,0.4,0.1,0.4-0.1v-0.3h0.3c-0.2-0.2,0.1-1.1-0.6-1.1v-0.3l1.4,1c0.3-0.9-0.3-0.6-0.8-1.1
		c-0.1-0.2,0.3-0.5,0-0.6c-0.3,0.3-0.9,0.3-1,0.8c-0.9,0-1.8,1-2.8,1.2c-2.4,0.5-5.3,0.9-7.5-0.3c-0.8-0.9-1.7-1.6-2.1-2.7
		c-0.4-0.3-0.8-0.8-0.4-1.2c0.7-0.5-0.1-1.8-0.3-2.6c-0.4,0.5,0.1,0.8-0.4,1c0.1-1.2,1.3-2.5,1.2-4.1c-0.2-0.6-0.9-0.1-0.9-0.2
		c-0.4-0.9,0.6-1.2,0-2c-2-0.3-2.5,2.2-4.4,2c-1.2,1.2-3.1,1.1-4.6,1.8c0.5,1.7,1.6,3.7,1.6,5.6c0.5,1.1-1.1,3,0.8,3
		c2,0.1,4.3-1,5.7,0.5c1,1.1,1.3,2.5,1.7,3.8c-0.6,2.3-2.8,3.7-4.3,5.6c-2.6-0.2-5.5-0.9-8.1,0.1c-3.4,1.1-6.9,2.1-10.5,2.7
		c-1.9-0.2-3.9-1-5.3-2.7c-0.1-1.1-0.4-1.9-0.7-3l0.3,0.4l0.2-0.3c-0.5-0.7-1.5-1.4-0.5-2.3c0.7-0.1,1.4-0.6,1.5-1.3
		c0.1-0.1-0.1-0.2-0.1-0.2c-0.2-0.1-0.4,0.1-0.6,0.2c0.1-0.8-0.2-1.7,0.4-2.3c1.6,0.5-0.2-1.3,1-1.7c-1.1-0.9-3.1-0.6-4.6-0.7
		c-2.1-0.4-4.4-0.2-6.1-1.7c-1-0.2-2.4-0.4-2.8-1.5l-0.1,0.1c-1.2-0.7-2.1-1.7-2.8-2.8c0.1,0.1,0.5-0.2,0.8,0.2
		c0.4-0.3-0.1-0.6-0.1-0.9c-0.2,0-0.2,0.1-0.3,0.2c-0.1-0.8-2.6-0.4-1.3-1.8c-0.2-0.2-0.2-0.6-0.5-0.5l-0.2,0.2
		c-1.2-1.7-2.5-4.2-2.6-6.7c0.8-0.6,0.8-1.6,1.6-2.4l-0.3-0.3c0.9,0.1,1-1.4,1.8-1.1l0.3-0.3c-0.2-0.1-0.2-0.2-0.2-0.4
		c0.3-0.2,0.9-0.2,0.7-0.7c0.4-0.2,1.4,0.2,1.2-0.7c0.3,0.4,0.7-0.1,0.9-0.1v-0.2h0.3c0,0.2,0,0.4,0.2,0.5c0.2,0.1,0.2-0.2,0.4-0.3
		l-0.2,0.1l0.3,0.3c0.9-0.4-0.2-1.2,0.9-1.4c0.1,0.6,0.9,0.1,0.9-0.3c0.1-0.1-0.1-0.2-0.1-0.3l1.1-0.8c-0.3,0.2,0,0.6,0.3,0.7
		c0.9-0.8,0.2-0.9,0.4-1.8h-0.7c0.1-0.1,0.2-0.2,0.2-0.3c-0.2-0.2-0.5,0.1-0.7,0.3v0.1h-0.2c-0.1-0.7,0.8-0.4,0.9-0.8
		c0.1,0.7,0.8,0.5,1.2,0.7v0.1c0.2-0.1,0.8-0.2,1-0.7c0.1-0.2-0.2-0.3-0.3-0.4l-0.3,0.3c-0.2-0.4,0.3-0.4,0.5-0.6
		c0.8,0.1,2-0.1,2.7-0.4h0.3c0,0.1,0.1,0.3-0.1,0.4c0.7,0.8,1.3-1,2.1,0l0.2-0.3v0.2c1,0.4,0.6-1.4,1.7-0.4c0.4-0.7,0.9-1,1.3-0.9
		c0.1,0.3,0.2,0.7,0.5,0.9c0.5-0.7,0.3,0.6,0.7,0l-0.2-0.6c0.4,0.7,0.3,2,0.1,2.8c-0.5,5.4-13.1,10-4.3,14.5
		c0.8,0.5,1.5,0.3,2.4,0.1c0.5-1.3,1.4,0.1,2.2-0.1c1.3-0.2,2-1.2,3.3-1.4c1.9-1.1-0.5-2.3-0.1-3.7c-0.4-1.9-1.2-4.3,0.3-5.8
		c-0.2-0.9,0.5-1.4,0.8-2.1c0.2,0.1-0.5,0.6-0.1,0.8c0.5-0.1,0.4-0.6,0.5-0.9c0.1,0.2,0.5,0.2,0.7,0.5c-0.2-0.5,0.6-0.7,0.7-1.2
		l0.7,0.1v-0.1c0.3,0.1,1.3-1.1,1.9-0.6c0.6,0.3,1.7-1.1,1.8-0.4c0.5-1.1-1-0.5-1.4-1c-7.2-0.9-14.9-3.8-16.8-11.7
		c-0.9-2.6,0.8-5.3,2.4-7.4c1.7-1.3,2.8-1.6,4.4-3c-1.2-2.1-4.3-3.1-5.3-5.4c-1.1-0.2-1.3-2.1-2-2.4c-2-3.6-1.1-8.1,1.3-11.2
		c2.2-2.6,5-5.9,8.5-6.4c1.3,0.5,2.6-0.5,3.5,0.9h0.4c-0.3,1.1,1.5,0.7,0.9,2c1.5-0.5,1.7,2,2.8,1.6c0.1,0.7,1.1,1.1,1.5,1.5
		c0.2-0.5,0.4-0.1,0.7,0l0.3-0.4c0.2,0.3,0.2,0.8,0.5,1c0.1-0.2,0.3-0.2,0.5-0.2c-0.2,0-0.2,0.1-0.3,0.2c-0.1,0.2,0.2,0.3,0.3,0.4
		c0.6,0.2,0.2-0.5,0.5-0.7c-0.1,0.5,0.7,1,1,1c-0.1,0.5,0.5,0.1,0.4,0.3c-0.2,0.1-0.1,0.2-0.1,0.4c-0.2-0.1-0.4-0.6-0.7-0.4
		l-0.2,0.5l-0.1-0.1l-0.3,0.3c0.1,0.4,0.4,0.4,0.7,0.4c0.2-0.1,0.2-0.3,0.2-0.4c-0.4,2-2.4,2.7-3.8,4.4c-1.1,0.5-1.7,1.1-2.3,1.8
		l-0.1-0.1c-0.6,0.7-1.4,2-2.3,1.8l0.1,0.1l-0.7,0.7l-0.3-0.2c-0.1,0.1-0.3,0.2-0.3,0.4c0.1,0.2,0.3,0.1,0.5,0.1l-0.2,0.2
		c2.1,0.9,4.2,2.9,6.8,2.4c0.4,1.6,2.8,1.4,2.3,3.4c0.4,0.2,0.7,0.4,1,0.7c-0.9,1.6,2,2.7,0.9,4.7c-0.1,0.5,0.1,0.8,0.2,1.4
		c0-0.3-0.1-0.5-0.3-0.7c0.7,2.3-0.5,4.9-1.7,7c-1,1.1-2.4,1.7-3.6,2.5c3.8,1,8,2.7,11.8,1.8c0.7,0.1,1.4,0.2,1.9,0.7
		c2,1.5-0.8,5.3,3.1,5.4l0.2,0.5l-0.2-0.2c-0.2,0.1-0.1,0.3-0.1,0.4c0.7,0.5,1.8,0.7,1,1.7c-1.7,1.5-3.8,0.2-5.6,0.6
		c-2-0.9-4.6-0.5-6.8-1c-0.1,1.8,0.8,3.3,0.6,5.1l0.4,0.9l0.1-0.2c0.2,0.9,0.9,2,1.8,2.1l0.3-0.5l0.4,0.4c0.3-0.1,0.1-0.4,0.2-0.6
		c0.4,0.4,1.2,0,1.1-0.5c-0.1,0.1,0.1,0.2,0.1,0.3c0.8-0.1,0.1-1,0.9-1.2c0.1,0.3,0.2,0.8,0.7,0.6l-0.2-0.7c0,0.1,0.1,0.2,0.2,0.3
		c-0.1-1.1,1.1-0.7,1.5-1.3c0,1.1,0.6-0.2,1,0l-0.4-0.4c0.9,0.1,1.4,0.9,1.8-0.3c-0.1-0.5,1.6,0,2-1l0.2-0.2l-0.1-0.2
		c1-0.2,3.1-0.9,4.7-0.3c3.8,2.3,4.4,6.4,4.4,10.5c0.5,0.9,1.2-0.5,1.5,0.1c1.5-1.5,2.9-2.8,4.6-4.1c1.6-2,2.5-5,3.7-7.5
		c1.1-0.5,2.2-0.7,3.2,0c1,0.8,1.7,2.1,1.2,3.6c-0.9,1.7-0.6,3.4-1.9,5c-0.5,0.6-1.4,1.5-1.7,2.3c3.1,1.6,7,0.9,9.6-1.1l0.8-0.9
		c-1.2-4.4-2.7-8.5-4-12.9c-0.4-2.8,1.4-5.2,3.4-6.7c5.3-2.5,10.3,2,15.3,3.1l0.8-0.1c-3.2-3.2-7.3-6.3-11.2-8.8
		c-1.1-0.1-2,0.8-2.8,0.3c0-0.2,0.3-0.5,0-0.6c-0.4,0-0.3,0.5-0.7,0.3c-0.5-1.1-1.7-1.9-1-3.3c1.4-1.6,0.8-4.2,1.1-6
		c-0.5-3,0.1-6.8-1.7-9.4c-1,0.8-2.1,0.2-3,1.3l0.3,0.3l-0.6,0.3l-0.3-1.2c-0.9-0.2-1,0.9-1.8,1l0.3-0.5c-0.4-0.1-0.9-0.5-1.3-0.2
		c-0.9,1.6-1.9-0.6-3.1,0.3c-0.5,0.1-0.9-0.3-1.2-0.7c-2.4,1.2-4-1.4-5.3-2.7c-2.2-3-1.4-7.5,0.4-10.5c0.2-0.8-0.4-1.2-0.5-1.8
		c-1.1-0.1-2.2,0.4-2.7,1.4c-0.2-0.2-0.7-0.8-1-0.2l-0.3,0.3c-1.4-1-2.6,1.6-4.5,1.7c-1.2,1.2-1.5,2.8-3.3,3.4
		c-1.1-0.4-1.7-0.2-2.7-0.8c-1.2-0.6-2.5-0.9-3-2.4c-1.3-1.7-0.8-3.7,0.2-5.4c4.2-2.4,8.7-4.3,13.1-6.1c0.5-0.8,1.7-0.2,2.2-1
		c4-0.8,9.1-0.1,12.1,2.7c0.5,1.1,2.5,1.7,2,3.3c1.6,0.3,1.5,2.7,1.7,3.9c0,0.8-0.5,1.9-0.1,2.4h0.4c-0.4,0.9-1,2.1-0.5,3
		c2.1,1,4.6-0.2,6.9,0.4c0,0.4,0.5,0.8,0.9,0.4c0.1-0.3,0.6,0,0.5-0.4l-0.1-0.1c0.7,0.2,2.1,0.1,2,1.1c-0.2,0-0.5-0.1-0.7,0.1
		c-0.1,0.4,0.2,0.7,0.5,0.7c0.5-0.3,1.1-0.2,0.8-1.1c0.6,0.3-0.1,1.7,0.8,0.8c-0.2-0.1-0.1-0.2-0.1-0.4c0.3,0.9,2.2,0.7,2.1,2.1
		c1.2-0.5,1.9,1.4,2.5,2.1c0.5,0.9,1.5,1.9,0.7,3c1.2,0.7,0.3,1.8,0.7,2.8c-0.1,0.6-0.4,0.1-0.7,0.4c-0.3,0.5,0.6,0.8,0.4,1.1
		c0.2,0.2,0.5,0.1,0.7,0.1c0.4,0.9-1.2,1.1-0.8,2.1c-0.7,0.2-1.1,1-1.8,1.3c0,0.3-0.5,0.5-0.9,0.6c-0.2-0.3-0.4-0.4-0.7-0.3
		l-0.1,0.1l0.4,0.6l-0.3-0.3c-0.2,0.3-0.4,0.8-0.7,1v-0.3c-1.6-0.7-2.5,1.1-4,1.7c0.1-0.2-0.1-0.2-0.1-0.3c-0.9,1.1-1.1-1-1.8-0.1
		c-0.2,0.2-0.5,0.3-0.5,0.5c8,3.9,16.1,8.2,22.2,15.1c0.7,1.4,2,2.2,2.2,3.8c4.3-1.7,8.2-3.4,12.2-5.5l0.4-0.6
		c-0.1,0.1-0.2,0.2-0.2,0.3c0.3,0.2,0.6-0.3,1-0.4c0.1-0.2-0.1-0.2-0.1-0.3h-0.2c0.4-0.2,1.6-1.1,1.9-2.1c0.4-1.8-0.7-2.9-0.7-4.7
		c-1.4-1.2-1.4-3.2-2.4-4.6c-0.5,0.5-0.2,1.4-0.9,1.7c0.7,0.5-0.7,1-0.2,1.7l-0.2-0.2c-1.1,2.3-3,4.9-4.6,6.7
		c-1.7,0.5-2.7,2.8-4.7,2.5c-0.3,0.2-0.6-0.7-0.7,0h-0.3c0-0.1,0.1-0.2,0.2-0.3c-0.4-0.3-1,0.1-1.3-0.2l-0.4,0.1
		c0.2-0.1,0.5-0.5,0-0.7l-0.3,0.3c-0.4-0.4,0.2-1.1-0.4-1.3c-1.2-0.1-1.7-1.4-2.7-2.1c0-0.2-0.2-0.1-0.4-0.1
		c-0.2,0.1-0.1,0.3-0.1,0.4c-0.4,0-0.5-1.3-1.1-0.7h0.1c0-0.2-0.1-0.8-0.3-1.1l-0.5,1.8c-1.2-5.7,4.1-8.9,6.2-13.4l-0.3-0.2
		l-0.1,0.1c-1.1-0.8-2.4-0.7-3-1.8c-1.7,0.7-3.3-0.6-4.9-1.1c0-0.9-0.4-1.8-1.3-2c-0.5-0.5-0.7-1.5-1.5-1.8
		c-1.5-3.2-0.2-6.3,0.6-9.5c0.6-1.9,2.3-3.3,3.8-4.7c0.4-0.5,0.1-1.1-0.2-1.6c-1,0,0.2,0.8-0.9,0.7c-0.4,0.3-0.5,1.4-1.1,0.7
		c-0.2-0.3-0.2-0.7-0.6-0.9c-0.6,0.5-0.5-0.5-0.9-0.6l-0.3,0.3v-0.2c-0.3-0.3-0.7,0-1,0.2c-0.1,0.2,0.2,0.3,0.3,0.4h0.3
		c0.2,0.9-0.8,0.5-1.4,0.4c-0.6-0.1-0.1-2-1.3-1.1v0.3c-0.6,0.4-0.5-0.8-1-0.2v-0.1c-1.1-0.2-2.5-0.4-3.7-0.1l0.3-0.3
		c-0.6-0.1-1.2,0.8-1.9,0.1c-0.9,0.2-2.8,0.2-3.8-0.5c-0.5-1-0.8-1.8-0.5-2.8c0.5,0.1,0.8-0.4,1.2-0.6c-1.2-0.4-1.8-1.9-2.3-2.5
		c1.1-0.5,2.7-0.6,3.8-0.2c6.7-1.1,12.6-0.8,19.5-0.2c-0.4-3.4,0.9-7.2-0.7-10.4c-0.5-0.8-1.4-1.1-2.1-0.9c-0.4,0.3-1.1-0.1-1.4,0.2
		v-0.1c-0.6,0.6-1.3,0.6-1.6,1c-1.3-0.7-0.9,0.9-2.3,0.1c-0.5,0.9-1.1-0.5-1.5,0.3c0.1,0.2,0.4,0.1,0.5,0.1
		c-1.3,0.3-2.2,1.2-3.7,0.9l0.1-0.2c-0.1-0.2-0.3-0.1-0.4-0.1c0.1,1.4-1.5-0.4-1.4,1c-0.4-0.8-2.2-0.4-3.3-1
		c-0.6,0.6-1.5,0.6-2.3,0.7c-0.2,0.1,0.5-0.1,0.3-0.4c-0.2-0.5-0.6-0.2-1-0.3c-0.2,0.1-0.1,0.4-0.1,0.6c-1.1,0.3-2.2-0.5-2.7-1.6
		c-2.2-4.8,2.5-8.6,4.1-12.5h-0.8c0.2-0.1,0.5,0.1,0.7-0.1v-0.3c-1.5-0.5-0.8,1.8-2.4,1.4c0.1-0.2-0.2-0.4-0.3-0.6
		c-0.3,0.4-0.8,0.1-1,0.6c0.2,0.1,0.2,0.4,0.4,0.3l0.3-0.3l0.2,0.1c-0.7,0.2-1.8,0.8-2.4,1.1c-0.1-0.2,0.1-0.5-0.2-0.7
		c-0.2,0.1-0.1,0.3-0.1,0.5c-0.1,0-0.2-0.1-0.3-0.2c-0.4,0.2,0.1,0.5,0.2,0.6c-1.1,0.7-2.3,1.1-3.1,2.1c0.7,1.5,3,1.7,2.7,3.7
		c1.2,0.5-0.1,1.6,0.9,2.1c-0.2,0.4-0.8-0.8-1.1,0c0.6,0.8-0.1,1.2,0.1,2c-0.2-0.1-0.3,0.2-0.4,0.3c0.8,0.7-0.9,1-0.7,2l0.4,0.3
		c-0.3,1.4-2,1.1-2.4,2.1l-0.3-0.3c-0.1,0.5-0.4,0.1-0.5,0.3c0.2,1.2,1-0.1,1.7,0.1c0.1-0.1,0.2-0.1,0.1-0.2c-0.1,0-0.1,0.9-0.8,0.7
		l-0.3,0.2l0.1,0.2c-0.1-0.1-0.9,0.1-1.1,0.5l0.8,0.2c0,0.1,0.1,0.2,0.2,0.3l0.4-0.6c0.5,0.5-0.4,0.6-0.6,0.8l-0.1,0.2
		c0.4,0.7,1,0,1.4,0c-1,1.2-2.5,1.3-3.9,1c-5.3-1.1-7.4-7.2-12.2-9.1l-0.4,0.8c0-0.1-0.1-0.2-0.2-0.2c-1,0.2-0.8,1.1-1.5,1.7v0.9
		l-0.2-0.2c-0.9,0.9-0.9,2.8-2.4,3c-0.5,2.3-2.5,3.6-4.1,5.3c-3.3,0.8-6.5-0.5-8.8-2.7l-0.4,0.4c-0.1,2.9-2.5,6.9,0.6,8.9
		c0.2,2,0.4,4-0.9,5.6c-1.1,0.1-2.3,0.7-2.8,1.7l-0.4-0.4c-0.6,0.7-0.8,1.5-2,1.4c-0.5-1.5,1.2-2.3,0.5-3.8c-0.7-0.8-2.1-0.8-2-2
		c0.4-6.5,1.3-12.8,2.5-18.9c0.1-0.4,0.5-0.6,0.6-1c-1.8-0.2-3.4-0.8-5.3-1c-2.1-1.1-4-2.2-5.3-4.4c-0.8,1.3,0.4,2.7,0.2,4
		c-0.1,1.3,1.4,2.1,0.2,3.3c-0.1,1.5,0.8,2.3,0.9,3.7c0.8,0.4,1,1.5,0.7,2.4c-0.9,0.1-0.9,1.2-1.6,1.7c0.6,0.4,1.2-0.1,1.7-0.1
		c-2.4-0.6-2.3,3.4-5,2.2c-0.1,0.2-0.3,0.2-0.4,0.2l-0.3-0.9c-2.8,0.9-6.1-0.1-8.1,2.1c-1.9,6-7.3,11.7-13.9,12.6
		c0.4,1-0.4,2.5,1.1,3.1l0.6,1.2c-0.1,0.3-0.1-0.4-0.4-0.3c-0.8,1.7,2,1.1,1.4,3.1c0,0.5,0.4,1.2,0.8,1.7c0.2,0,0.4,0.1,0.4-0.1
		v-0.3c1,0.9-0.7,2.2,0.9,3.1c1.1,0.7,0.8,2.4,0.8,3.6c-0.7,3.1-3.2,6.5-6.2,7.7c-0.1,0.3,0.1,1.1,0.5,1.1c2.3,2.6,4.1,5.7,7.7,6.5
		c0.8,0.5,0.8,1.3,1,2c-0.3,1.1-1.2,2.1-2.1,2.5c-8.6-0.6-14.3-8.1-19.5-14.6c-1.7-2.6-1.7-6.6-0.2-9.2c2.1-2.2,4.7-3.2,7.6-3.1
		l0.4-0.4c-2.1-5.4-5.9-12.1-2-17.9c1.6-1.5,3.8-2.4,6-2.8c0.4-0.8,2.1-0.4,2.7-1.2c1.1,0,2.2-0.4,2.8-1.3c2.3-2.8,2.2-6.7,5.5-8.9
		l0.2,0.1l1.5-1.2c0,0.1-0.1,0.4,0.1,0.4l1.3-0.8c0.1,0.2,0.5,0.7,0.1,0.9c0.4,0.3,0.7,0.4,1.2,0.3c0.2-0.1,0.1-0.3,0.1-0.4
		c0.7,0.2,0.9,1.1,1,1.8c0.2,0.1,0.3-0.2,0.5-0.1c0.4-0.4-0.1-0.6,0.2-1c0.7,0.8,1.1,0.2,1.7,1.4c-0.5,0.1-1.4-0.4-1.7,0.4
		c0.8,0.2-0.1,1,0.1,1.3l1.6,0.4c-0.3,0.1-0.6-0.1-0.7,0.1c0.7,0.2,0.6,1.8,1.7,1c0.2-0.2,0.8,0.2,0.7,0.6c-0.1-0.1-0.2,0.1-0.2,0.1
		v0.2h0.5c0.4-0.5-0.3-1.4-0.3-2.1l-0.8,0.1l0.1,0.4c-0.7,0.5-0.4-0.7-0.7-1.1c0.2-0.4-0.2-0.4-0.4-0.6l-0.4,0.2l0.1-0.3
		c0.3,0.5,0.6-0.3,0.7-0.3c-0.1,0.7,0.7,0.5,1,0.7v0.3c-0.2,0.1-0.5-0.1-0.5,0.1c0.2,0.3,0.6,0.1,0.8,0.3V53.1
		c0.3-2.2,0.5-4.5,2.4-5.8c0.2-1.6,2.2-1,3.3-1.7c3.7-0.2,6.4,3.1,8.6,5.5c0.9,0.7,1.5,2.1,2.7,2c2-1.4,1.9-3.8,2.8-5.8
		c0.5-0.5,1.4-0.2,1.5-1c0.4-0.7-0.9-0.6-0.2-1.3c0.8-0.5,0.6-1.5,0.8-2.3c0.2,0.1,0.3-0.2,0.4-0.3c0.5,0.5,0.5-0.2,0.9-0.4
		c-0.4-0.9,0.5-1.5,0.8-1.8c0.1-0.1,0.2,0.1,0.3,0.1c0.7-1.8,2.4-2.9,4.3-3.3c1.6-1.1,3.9-1.3,6-1L290.2,37z M298.3,47.7l-0.2,0.5
		l0.3-0.2C298.5,47.8,298.4,47.7,298.3,47.7z M296.7,48.8v0.4c0.2-0.1,0.2-0.3,0.2-0.4H296.7z M296.9,51.1l-0.4-0.4l0.2,0.6
		L296.9,51.1z M281.1,54.4l-0.1-0.5l0.1,0.3V54.4z M317.3,58.9c-0.4-0.2-0.2-0.4,0-0.7V58.9z M247.3,68l0.4,0.1L247.3,68z
		 M247.6,69.3c0.8,0.1,0.2,0.6,0.3,0.9c0,0.4-0.2-0.1-0.2-0.2l0.3-0.3c-0.1-0.4-0.7,0.1-0.7-0.4c-0.2-0.4,0.5-0.5,0.9-0.5
		L247.6,69.3z M249.1,69.3h0.2v-0.5h-0.2V69.3z M261.2,70.2v-0.7l0.2,0.7H261.2z M250,70.5v0.3h-0.6l0.3-0.4
		C249.8,70.5,249.8,70.6,250,70.5z M249,71.4h0.3c0.1-0.1,0.2-0.2,0.1-0.3C249.2,71.1,249,71.2,249,71.4z M251.8,71.5
		c0.2,0.5-0.5,1,0.1,1.1c-0.2,0.2-0.2,0.6-0.5,0.4c-0.2,0.2-0.6,0.1-0.4,0.5l0.4-0.5c0.1,0.1,0.2,0.4,0.4,0.3
		C252.1,72.7,252.1,72.1,251.8,71.5z M252.5,72.3c-0.6,1,1,0.8,1,1.5c-0.9,0.4-0.1,0.4-0.2,1c0.7-0.5-0.2-1.7,0.9-1.4l-0.6-0.7v0.2
		C253.7,72.5,252.3,72.8,252.5,72.3z M250.1,72.4h-0.5l0.7,0.2L250.1,72.4z M255.3,75.9l-0.2-0.4h0.2V75.9z M333,83.7
		c0.1,0.2-0.1,0.2-0.1,0.3h-0.3v-0.4C332.6,83.8,332.8,83.7,333,83.7z M329.3,83.9c-0.2,0.2-0.8,0.3-0.8-0.2L329.3,83.9z
		 M345.2,89.9c-0.2,0.3-0.6,0.5-1,0.4c-1.7,2.5-4.7,4.3-6.1,7.1c1.7,0.5,3.1,1.5,4.8,2.1c1.5,1.2,4.7,1.8,4.4,4.3
		c0.2,0.1,0.3-0.2,0.4-0.3c0.9-0.6,1.1,0.8,1,1.3c-0.2-2.2,1.3-3.6,2-5.5c-2-1.8-4.6-3.7-5.4-6.5c-0.5-1.4-0.3-3.3,0.9-4.1
		C345.6,88.7,344.6,89.2,345.2,89.9z M307.3,90.1H307l0.2-0.4C307.3,89.8,307.3,90,307.3,90.1z M265.9,91l-0.2,0.4L265.9,91z
		 M266.4,92.7h-0.4l0.1,0.2L266.4,92.7z M323.3,97.1c-0.1,0.3,0.1,0.8,0.4,0.7v-0.4C323.8,97.2,323.5,97.1,323.3,97.1z M307.6,98.4
		h0.4H307.6z M259.5,98.8l-0.5,0.4L259.5,98.8z M292.2,100.4c-2.4-1.1-4.7,0.4-7.3,0.3c-0.6,0.2-1.1,0.8-1.8,0.6
		c-1.2,1.3-1.5,3.6-3.2,4.3l-0.3-0.3c-0.4,0.2-0.6,0.6-0.5,1.2c1.2,1.2,3.4,0.6,4.4,2.6c1.6,0.9,1.8-1.9,3-0.3
		c-0.1,0.7,0.2,1.7-0.3,2.3c-0.9,0.1-1.7,0.5-2.1,0.2c-0.4-0.6-1.3-0.1-1.8-0.5c-2.2-1.1-2.4,2-4.6,1.4c-1.3,1,1.9,2.1-0.2,2.8
		c-0.1,1.6,1.1,2.5,1.7,3.5c2.3,0.5,1.3,3,3.4,3.6c0.5,0.4,1.6-0.2,1.8,0.6c1.3-0.6,3.1,0.6,4.4-0.4c1.1,0.9,0.5-1.1,1.7-0.4
		c1.8-0.7,0.2-1.4,0.7-2.4c0.7-0.1,0.4,0.7,0.9,1c0.9,0.5,0.5-0.3,1.1-0.7c0.6-0.4,0.5,0.8,1,0c0-0.3-0.3-0.4-0.5-0.6
		c0.5-0.5,1.2-0.9,1.9-0.7c-0.1-1.7-0.7,0.5-1.4-0.4c0.9-1.3,2.9-2,2.7-3.8c-0.3,0.4-0.8-0.7-1-0.1c-0.1-0.5,0.2-0.9,0.5-1.3
		c0.1,0,0.4-0.1,0.4,0.1l-0.2,0.2l0.5,0.5c0.4,0.2,0.4-0.5,0.8,0c0.5-0.2,0.2-1.3,0.1-1.2c-0.4,0.5-0.5-0.4-0.8-0.3
		c0.2-0.4,0.2-1,0.6-1.3c0.2,0.2,0.5,0.7,0.4,1c0.3-1.9,0-3.8-0.3-5.8c-0.8-0.6-0.6-2.1-1.8-2.7c-0.6-0.4-1.1,0-1.3,0.6
		c-0.1,0-0.4,0-0.4-0.2c0.4-0.4-0.2-1.5-0.4-2l-0.9,0.3C292.9,101.5,292.8,100.7,292.2,100.4z M304.5,100.6c0,0.2-0.4,0.1-0.7,0.1
		C304.1,100.6,304.3,100.5,304.5,100.6z M323.7,103.5c0.2-0.1,0.2-0.3,0.2-0.4c0,0.1-0.1,0.4,0.1,0.4h-0.5v-0.4L323.7,103.5z
		 M296.5,105.7c0.2,0.1,0.4,0.6,0.7,0.4v-0.3C297.2,105.3,296.3,104.6,296.5,105.7z M295.8,105.4l-0.3,0.3l0.3,0.3
		c-0.1,0.1-0.4,0.2-0.3,0.4c-0.2-0.5,0.9,0.4,0.5-0.6C296.1,105.4,295.8,105.6,295.8,105.4z M297.9,108.1l-0.2,0.1l-0.3-0.8
		C297.9,107.5,298,107.7,297.9,108.1z M296.7,107.5v1.4c-0.2,0.2-0.7,0.1-0.5,0.6c0.4-0.2,0.5,0.2,0.8,0.1
		C297.1,109,296.8,108.2,296.7,107.5z M298.1,109.5v0.4c-0.4,0.2-0.4-0.3-0.4-0.6C297.9,109.3,298.1,109.3,298.1,109.5z
		 M296.5,116.6l1.2-2.5C297.6,114.9,297.4,115.7,296.5,116.6z M294.8,115.5c-0.2,0.4-0.9,0.9-0.3,1.1l0.3-0.3l0.3,0.6l0.7-1l0.1,0.1
		C296,115.1,294.8,116.1,294.8,115.5z M293.5,118.4l0.9,0.1C294.5,118,293.6,118,293.5,118.4z M344.1,130.2l0.1-0.5l0.7,0.1
		L344.1,130.2z M243,131.2h-0.5C242.7,131.3,242.9,130.9,243,131.2z M342.5,131.5l-0.3-0.4l-0.1,0.7L342.5,131.5z M340,131.9
		c0-0.1-0.1-0.2-0.1-0.3l0.5-0.1L340,131.9z M237.7,134l0.2-0.7l-0.2,0.2V134z M243,133.4h-0.5l0.2,0.3L243,133.4z M239.1,133.5
		c-0.1,0.2-0.4,0.5-0.6,0.2c-0.2,0.2-0.8,0.7-0.5,0.8L239.1,133.5z M240.6,134.9H240v0.3h-0.3C240,134.6,240.2,134.1,240.6,134.9z
		 M239.3,134.9l-0.7,0.5h0.4C239.2,135.2,239.4,135.1,239.3,134.9z M236.9,136.3c-0.4-0.1-0.6,0.1-0.7,0.5c-0.6,0.1-0.8,0.5-1.3,0
		l0.2,0.1l-1.3,0.8c1.3-0.1,1.8-0.9,3.1-1.1V136.3z M236.2,137.7l-0.1-0.2h0.4L236.2,137.7z M233.7,139.2c-0.4,0.5-0.4,0.2-0.9,0.5
		C232.7,138.8,233.5,139.3,233.7,139.2z M297.2,140.8l-0.7,0.8L297.2,140.8z M232.5,141.3c-0.3,0-0.7,0.1-0.7,0.5h0.4l-0.2-0.2
		L232.5,141.3z M299.9,146.9c-3,1.8-3.7,5.1-6.7,7.2c-0.4,0.9-1.8,0.9-1.8,2c0.6-0.2,0.4,0.6,0.4,0.7v-0.3c0.1-0.1,0.2-0.2,0.3-0.1
		c1,0.9,3,1.9,2.9,2.1c1.7,1.1,3.5,2.5,5,3.1c0.5,0,1.2,0.4,1.4,0.4c1.8,1.2,3.3,1.1,5.6,1.2c2,0.1,2.5-1.7,3.5-3
		c-0.6-1.1,1.1-0.9,1.1-1.3l0.1,0.2c0.5-0.2,0.3-0.7,0.5-1c-0.8,0.1-0.7-0.6-1.3-1l-0.8,0.4v-0.4h-0.6l0.3,0.6
		c-0.1,0.2-0.3,0.1-0.4,0.1c-0.3-0.1-0.1-0.5-0.2-0.7h-0.3c-0.5,0.4,0.5,0.9-0.4,0.9c-0.4-0.1-0.5-0.5-0.4-0.9
		c-0.4,0.2,0,0.2-0.3,0.4c-1,0.3,0-0.6-0.7-0.7c0.1-0.1,0.4-0.2,0.3-0.4c-2.4,0.9-1.9-1.4-3.9-1.8c0.4-0.4-0.4-0.6-0.4-1l-0.3,0.3
		c-0.6-0.7-1-0.8-0.8-1.7h-0.3c-0.3-0.1-0.5-0.4-0.4-0.7c-1.1,0.6-0.4-1.2-1.4-1c0-0.4,0.4-0.9,0.8-0.8c0.1-0.4-0.4-0.6-0.5-0.8
		c0.1-0.1,0.2-0.4,0.4-0.3L299.9,146.9z M306.7,156.1c-0.2,0.6-0.7-0.1-1.1,0.1l0.2-0.5C306,155.8,306.1,156.6,306.7,156.1z
		 M309.1,156.9c0-0.1-0.5-0.4-0.1-0.5l0.4,0.3L309.1,156.9z M292,157.4c0.1,0.2,0,0.6,0.3,0.7v-0.5
		C292.4,157.5,292.2,157.3,292,157.4z M293.1,158.7c0.2,0.4,0.4-0.2,0.7,0C293.6,157.7,293.1,158.8,293.1,158.7z M291.3,159.4
		c-0.3-0.2,0-0.4,0.2-0.5L291.3,159.4z M310.7,161.1l0.1-0.8v0.7L310.7,161.1z"/>
</g>
</svg>
